<svg width="51" height="36" viewBox="0 0 51 36" fill="none" xmlns="http://www.w3.org/2000/svg">
<path d="M10.2528 35.6754H10.1669V28.1754H27.6669L19.3231 33.1832C16.6044 34.7457 13.495 35.6754 10.2528 35.6754ZM27.6669 8.17543H10.1669V0.675432H10.2528C13.495 0.675432 16.6044 1.53715 19.3231 3.16918L27.6669 8.17543ZM8.29187 8.17543C10.3387 8.17543 12.1512 9.15981 13.2919 10.6754H35.7919C41.2059 10.6754 46.3387 12.4489 49.7919 17.0504C50.2919 17.7145 50.2919 18.6364 49.7919 19.3004C46.3387 23.902 41.2059 25.6754 35.7919 25.6754H13.2919C12.1512 27.1911 10.3387 28.1754 8.29187 28.1754H7.66687V35.6754H6.41687C4.34578 35.6754 2.66687 33.9957 2.66687 31.9254V28.1754H3.29187C1.56609 28.1754 0.16687 26.777 0.16687 25.0504V11.3004C0.16687 9.57387 1.56453 8.17543 3.28875 8.17543H2.66687V4.42543C2.66687 2.35434 4.34578 0.675432 6.41687 0.675432H7.66687V8.17543H8.29187ZM37.3856 14.4254C37.1278 14.4254 37.0419 14.5114 37.0419 14.7692V21.5817C37.0419 21.7692 37.1278 21.9254 37.3856 21.9254C38.9247 21.9254 40.1669 20.6832 40.1669 19.1442V17.2067C40.1669 15.6676 38.9247 14.4254 37.3856 14.4254V14.4254Z" fill="#222222"/>
</svg>
